<svg xmlns="http://www.w3.org/2000/svg" viewBox="0 0 75 65.4"><path d="M25.3,64.3l-3-1.3c0-.2.1-.5.1-.8a1.7,1.7,0,0,0-.9-1.4,4,4,0,0,1-1.2-1,24.3,24.3,0,0,1-3.1-5.4,13.2,13.2,0,0,1-.4-8.1,6.9,6.9,0,0,1,.5-1.3L14,43.1l-1.4,1.1c-.3.3.3.8.3,1.2a6.3,6.3,0,0,1-.7,3.6,3.2,3.2,0,0,0,.4,3.7l1.9,2.4a21.2,21.2,0,0,1,3.3,5.6,4.7,4.7,0,0,1,.3,1.7c-.1,1-.1,1,1,1.3a11.1,11.1,0,0,0-.2,1.7H26a1.1,1.1,0,0,0-.7-1.1" fill="#ba3d36"/><path d="M55.5,63c-.2-.2-.4-.2-.6-.3s-.8-.4-.7-1-.2-.6-.4-.7-1.7-1.4-2.3-2.9-1.8-3.7-1.6-6.1a11.6,11.6,0,0,0-.9-5.8,22.4,22.4,0,0,1-1.8-6.1,18.8,18.8,0,0,1-.2-3.4v-.3l-1.2,1.7-2.1,2.5a1.4,1.4,0,0,0-.2.6,21.7,21.7,0,0,1,.8,5.1A20.6,20.6,0,0,0,47,55l.2.3c1.8,2.6,2.2,4.1,1.8,7.1-.2,1,.1,1.4,1.1,1.4a7.8,7.8,0,0,0-.2,1.6h7.6c0-.3-.1-.8-.3-.9A12.2,12.2,0,0,0,55.5,63" fill="#ba3d36"/><path d="M72.8,4h-.9L67.5,2.8,66,2.3l-.6-.2h-.3l-.6-.2H63a5.8,5.8,0,0,0-1.9.3h-.3l-.5-.2-.6-.4h0C59,.8,58.4.6,58.1.3s-.5-.4-.7-.2l-.3.7a9.3,9.3,0,0,0-.2,1.4c0,1,.6,1.4,1.6,1.7a21,21,0,0,0-.6,2.4l-.6,5.9c-.2,1.2-.3,2.4-.5,3.6a8.3,8.3,0,0,1-.4,1.5h0A5.6,5.6,0,0,1,53,21.2a11.5,11.5,0,0,1-2.8.7h-.9V2.6A2.5,2.5,0,0,0,46.8.1H8A2.5,2.5,0,0,0,5.5,2.6V25.2h0l-.4.7a1,1,0,0,0-.4.5l-.9,1.2a14.5,14.5,0,0,0-2.6,7.8,5.2,5.2,0,0,1-.5,2.4A16.6,16.6,0,0,0,.1,40a4.6,4.6,0,0,0,1.2,4.2,5.3,5.3,0,0,0,2-5.7,9.7,9.7,0,0,1,1.4-8.6l.4-.4.7-.8a12.9,12.9,0,0,0,.4,1.9v2.7c.1,2.1.1,4.1.2,6.1a9,9,0,0,1-2.1,6.5L2,49a1.9,1.9,0,0,0-.2.7c-.2,1.6.3,3.2.4,4.8s0,2.9,0,4.9a2.9,2.9,0,0,1-.3,1c-.1.7-.1,1.2.5,1.6s.2.6.1.9a4.1,4.1,0,0,0-.1,2.2.5.5,0,0,0,.3.3H8.4a2.6,2.6,0,0,0-1.3-1.6,6.9,6.9,0,0,1-1.3-1.1.6.6,0,0,1-.1-.8,1.4,1.4,0,0,0-.1-1.5c-1-1.3-1-1.5-.7-2.9a16.3,16.3,0,0,0,.3-3.1A11.4,11.4,0,0,1,8.8,46l.7-.6c1.2-1,2.5-1.9,3.7-3l.6-.5.9.6a22.8,22.8,0,0,0,3,1.7,20.1,20.1,0,0,0,8.7,1.9h4.3c0,.3-.1.6-.1.9a5.8,5.8,0,0,1-.7,2.1,3.2,3.2,0,0,0,.4,3.7l1.9,2.4a21.5,21.5,0,0,1,3.4,5.6,4.7,4.7,0,0,1,.2,1.7c-.1,1-.1,1,1,1.3s-.1,1.2-.2,1.7h7.1a1,1,0,0,0-.7-1.1L40,63c0-.2.1-.5.1-.8a1.5,1.5,0,0,0-.9-1.4,4,4,0,0,1-1.2-1,29,29,0,0,1-3.1-5.4c-.9-2.7-1.3-4-.6-6.7a5.1,5.1,0,0,1,.9-1.8l.8-1.2A20,20,0,0,0,43.2,40a21.3,21.3,0,0,0,4.6-7h.9a29.8,29.8,0,0,0,6.6-.8h.3a11.9,11.9,0,0,0,7.3-5.5h0c.2-.2.2-.4.3-.5a15.9,15.9,0,0,0,1.4-4l.2-1.5a58,58,0,0,0,.3-10.2,1.1,1.1,0,0,1-.1-.5c0-.1.1-.1.1-.2l.7.2,1,.2h1.1a.1.1,0,0,0,.1-.1h.3l.5-.4,1.1-.7h.8l.9.6a2.7,2.7,0,0,0,2.5,0,2.8,2.8,0,0,0,.8-1.9H75A2.9,2.9,0,0,0,72.8,4M31.4,9.1l15,11.8.7.6v3.7l-.7-.6L30.8,9.8,44.9,32.3l.4.7a11.7,11.7,0,0,0-.5,1.1,24.2,24.2,0,0,1-2.7,3.6l-.3-.5-.5-1.3L32,14.9l-2.1-1.5-2.4-1.7-2.4,1.7L23,14.9,13.1,37.3v.2l-.2.5-.5-.6A16,16,0,0,1,9.4,33l.5-.8,14-22.4L8.4,24.5l-.8.8V21.5l.8-.7.9-.7L23.7,8.9h-.1l-1.3.5L8.4,14.6l-.8.3V2.6A.5.5,0,0,1,8,2.1H46.7a.5.5,0,0,1,.4.5V14.9l-.7-.2L31.3,8.9h.1Z" fill="#ba3d36"/><polygon points="28.7 6.8 27.5 3.2 26.3 6.8 22.6 6.8 24.4 8.2 25.6 9 25.6 9 24.4 12.6 27.5 10.4 30.5 12.6 29.4 9 29.4 9 30 8.6 32.4 6.8 28.7 6.8" fill="#ba3d36"/></svg>