<svg xmlns="http://www.w3.org/2000/svg" viewBox="0 0 141.2 127.9"><path d="M16,127.5H12.1l-5.2-5.9H3.7v5.9H.4V109.9H8.8c4.1,0,6.3,2.8,6.3,5.9a5.2,5.2,0,0,1-4.4,5.5l5.3,6ZM3.7,113v5.6H8.8a2.8,2.8,0,1,0,0-5.6Z" fill="#fff"/><polygon points="30.5 127.5 17.3 127.5 17.3 109.9 30.5 109.9 30.5 113.1 20.6 113.1 20.6 117.2 30.2 117.2 30.2 120.3 20.6 120.3 20.6 124.3 30.5 124.3 30.5 127.5" fill="#fff"/><path d="M48.6,118.6c.1,4.4-2.7,8.9-8.8,8.9h-7V109.9h7c6,0,8.7,4.3,8.8,8.7m-12.5,5.7h3.7c4,0,5.6-2.9,5.5-5.8s-1.7-5.4-5.5-5.4H36.1Z" fill="#fff"/><path d="M71.4,125.3a9.3,9.3,0,0,1-6.7,2.6c-6.6,0-9.3-4.5-9.4-9.1s3-9.2,9.4-9.2a8.9,8.9,0,0,1,6.4,2.7l-2.2,2.1a6.1,6.1,0,0,0-4.2-1.7,5.8,5.8,0,0,0-6.1,6.1c0,3,1.7,6,6.1,6a6.4,6.4,0,0,0,4.4-1.8Z" fill="#fff"/><path d="M85,124.2H75.7l-1.5,3.3H70.6l7.9-17.6h3.7l7.9,17.6H86.4Zm-4.6-10.6-3.3,7.5h6.5Z" fill="#fff"/><polygon points="106.6 114.8 100.9 122.4 100.3 122.4 94.6 114.7 94.6 127.6 91.3 127.6 91.3 109.9 95.2 109.9 100.7 117.5 106.2 109.9 110 109.9 110 127.6 106.6 127.6 106.6 114.8" fill="#fff"/><polygon points="126.2 127.5 113 127.5 113 109.9 126.2 109.9 126.2 113.1 116.3 113.1 116.3 117.2 125.9 117.2 125.9 120.3 116.3 120.3 116.3 124.3 126.2 124.3 126.2 127.5" fill="#fff"/><polygon points="132.1 109.9 132.1 124.5 141.2 124.5 141.2 127.5 128.8 127.5 128.8 109.9 132.1 109.9" fill="#fff"/><path d="M4.3,105.9H1.6l-.5,1H0l2.4-5.4H3.5l2.4,5.4H4.8Zm-1.4-3.2L2,104.9H3.9Z" fill="#fff"/><path d="M13.7,101.6v3a2.2,2.2,0,0,1-2.3,2.4A2.3,2.3,0,0,1,9,104.6v-3h1v3a1.3,1.3,0,0,0,1.4,1.5,1.3,1.3,0,0,0,1.3-1.5v-3Z" fill="#fff"/><polygon points="19.1 102.5 17.4 102.5 17.4 101.5 21.8 101.5 21.8 102.5 20.1 102.5 20.1 106.9 19.1 106.9 19.1 102.5" fill="#fff"/><path d="M30.7,104.2A2.6,2.6,0,0,1,28,107a2.5,2.5,0,0,1-2.7-2.7,2.7,2.7,0,0,1,2.7-2.9,2.6,2.6,0,0,1,2.7,2.8m-4.5.1a1.8,1.8,0,0,0,1.8,1.8,1.6,1.6,0,0,0,1.7-1.8,1.6,1.6,0,0,0-1.7-1.9,1.7,1.7,0,0,0-1.8,1.9" fill="#fff"/><path d="M42.4,102.8a1.4,1.4,0,0,0-1.2-.6c-.8,0-1.1.4-1.1.7s.5.6,1.2.7,2.1.4,2.1,1.7-1,1.7-2.2,1.7a2.3,2.3,0,0,1-2.4-1.3l.9-.4c.2.6.8.8,1.5.8s1.2-.2,1.2-.8-.5-.7-1.2-.8-2.1-.4-2.1-1.6,1.1-1.5,2-1.5a2.1,2.1,0,0,1,2.1,1Z" fill="#fff"/><path d="M51,105.9H48.2l-.4,1H46.7l2.4-5.4h1.1l2.4,5.4H51.5Zm-1.4-3.2-1,2.2h2Z" fill="#fff"/><polygon points="57.2 101.5 57.2 106 59.9 106 59.9 106.9 56.2 106.9 56.2 101.5 57.2 101.5" fill="#fff"/><polygon points="67.7 106.9 63.7 106.9 63.7 101.5 67.7 101.5 67.7 102.5 64.7 102.5 64.7 103.8 67.6 103.8 67.6 104.7 64.7 104.7 64.7 105.9 67.7 105.9 67.7 106.9" fill="#fff"/><path d="M80.3,105.3a.6.6,0,0,0,.5.6v1a.9.9,0,0,1-1-.7,1.6,1.6,0,0,1-1.5.8c-1.2,0-2.1-.4-2.1-1.7a1.3,1.3,0,0,1,.8-1.2,1,1,0,0,1-.7-1c0-1.2,1.1-1.6,2-1.6s2,.3,2,1.5h-1c0-.5-.5-.7-1-.7s-1.1.4-1,.8.6.7,1,.7h2.5v.8h-.5Zm-3.1,0c0,.5.5.8,1.1.8s1.1-.2,1.1-.8v-.7H78.2c-.7,0-1,.3-1,.7" fill="#fff"/><path d="M94,106.9H92.9l-1.6-1.8h-1v1.8h-1v-5.4h2.6a1.9,1.9,0,0,1,1.9,1.8,1.7,1.7,0,0,1-1.4,1.7l1.6,1.8Zm-3.7-4.4v1.7h1.6a.8.8,0,0,0,.9-.9.8.8,0,0,0-.9-.8Z" fill="#fff"/><polygon points="101.5 106.9 97.5 106.9 97.5 101.5 101.5 101.5 101.5 102.5 98.5 102.5 98.5 103.8 101.4 103.8 101.4 104.7 98.5 104.7 98.5 105.9 101.5 105.9 101.5 106.9" fill="#fff"/><path d="M107.9,105.3h-1.6v1.6h-1v-5.4h2.6a1.9,1.9,0,1,1,0,3.8m-1.6-.9h1.6a1,1,0,0,0,0-1.9h-1.6Z" fill="#fff"/><path d="M117.4,105.9h-2.8l-.5,1H113l2.4-5.4h1.1l2.4,5.4h-1.1Zm-1.4-3.2-1,2.2h1.9Z" fill="#fff"/><rect x="122.3" y="101.5" width="1" height="5.35" fill="#fff"/><path d="M132.1,106.9h-1.2l-1.6-1.8h-.9v1.8h-1.1v-5.4h2.6a1.8,1.8,0,0,1,1.9,1.8,1.6,1.6,0,0,1-1.3,1.7l1.6,1.8Zm-3.7-4.4v1.7h1.5a.8.8,0,0,0,.9-.9.8.8,0,0,0-.9-.8Z" fill="#fff"/><path d="M63.8,92.2l-4.4-1.8a3.6,3.6,0,0,0,.2-1.1,2.4,2.4,0,0,0-1.4-2.1,4.3,4.3,0,0,1-1.6-1.4A35.5,35.5,0,0,1,52.2,78a19.7,19.7,0,0,1-.7-11.5,7,7,0,0,1,.8-2,27.3,27.3,0,0,1-4.7-2.7l-2,1.7c-.4.3.3,1.1.4,1.7a9.9,9.9,0,0,1-1,5.1,4.5,4.5,0,0,0,.5,5.3l2.8,3.5a29.9,29.9,0,0,1,4.8,8.1,5.8,5.8,0,0,1,.3,2.3c-.1,1.4-.2,1.4,1.4,2l-.3,2.4H64.7a1.6,1.6,0,0,0-.9-1.7" fill="#ba3d36"/><path d="M107.1,90.4a2,2,0,0,0-.9-.5c-.6-.3-1.2-.4-.9-1.4s-.4-.9-.7-1c-2.2-1-2.4-2-3.2-4.2s-2.7-5.3-2.3-8.7a18.1,18.1,0,0,0-1.3-8.3,38.9,38.9,0,0,1-2.7-8.8c-.2-1.6-.1-3.2-.2-4.8v-.5a24.9,24.9,0,0,1-1.7,2.4c-1,1.3-2,2.5-3.1,3.7s-.3.6-.2.8A30.7,30.7,0,0,1,91,66.4a29.1,29.1,0,0,0,3.9,12.5l.3.5c2.6,3.7,3.1,5.8,2.5,10.2-.2,1.4.3,1.9,1.7,2a14.3,14.3,0,0,0-.4,2.2h9.9c.3,0,1,.1,1,0a2.1,2.1,0,0,0-.3-1.3l-2.5-2.1" fill="#ba3d36"/><path d="M131.9,5.8l-1.2-.2L124.3,4a8.6,8.6,0,0,1-2.1-.7l-.9-.3-.4-.2-.9-.2h-2.2a12.6,12.6,0,0,0-2.7.4h-.3a1.6,1.6,0,0,1-.9-.3l-.8-.5h0c-.9-.8-1.9-1.1-2.3-1.5s-.7-.5-.9-.3a5.1,5.1,0,0,0-.4,1.1,5.4,5.4,0,0,0-.4,2c0,1.4.9,2,2.3,2.4a23.7,23.7,0,0,0-.8,3.4c-.4,2.8-.6,5.7-1,8.5s-.4,3.5-.7,5.2-.3,1.4-.4,2.1h-.1a8,8,0,0,1-4.9,5.5,23.4,23.4,0,0,1-4,1h0a1.7,1.7,0,0,1-1.2-.2h-.1V3.7A3.6,3.6,0,0,0,94.7.1H39a3.6,3.6,0,0,0-3.6,3.6V36.3l-.7,1-.5.7-1.3,1.8a19.9,19.9,0,0,0-3.7,11.1,8.4,8.4,0,0,1-.7,3.5,17.1,17.1,0,0,0-.9,3,6.9,6.9,0,0,0,1.7,6.1,7.6,7.6,0,0,0,2.8-8.3,13.6,13.6,0,0,1,2.2-12.3l.5-.6,1-1.1a13.1,13.1,0,0,0,.6,2.7v3.9c.1,2.9.1,5.9.2,8.8a12.6,12.6,0,0,1-3,9.3c-1.2,1.4-2.2,2.9-3.3,4.4a1.9,1.9,0,0,0-.3,1c-.3,2.4.5,4.6.6,7s0,4.1,0,7a3.3,3.3,0,0,1-.4,1.4,2.2,2.2,0,0,0,.6,2.3,1,1,0,0,1,.3,1.2,5.8,5.8,0,0,0-.2,3.2.6.6,0,0,0,.5.5h8.1a4,4,0,0,0-1.8-2.4,10,10,0,0,1-2-1.6c-.3-.2-.3-.6-.1-1a1.9,1.9,0,0,0-.1-2.3c-1.4-1.7-1.4-2-1-4.1a22.5,22.5,0,0,0,.4-4.4A16,16,0,0,1,40.2,66l.9-.8,5.3-4.3.9-.8,1.3.9a35,35,0,0,0,4.2,2.4,30.1,30.1,0,0,0,12.6,2.8h2.8l3.3-.2a5.3,5.3,0,0,0-.1,1.3,11.8,11.8,0,0,1-1,3,4.5,4.5,0,0,0,.5,5.3l2.8,3.5a27.6,27.6,0,0,1,4.8,8.1,4.5,4.5,0,0,1,.3,2.3c-.1,1.4-.1,1.4,1.4,2a21.2,21.2,0,0,1-.2,2.4H90.2a1.6,1.6,0,0,0-1-1.7l-4.3-1.8c0-.3.1-.7.1-1.1a2.3,2.3,0,0,0-1.3-2.1A4.6,4.6,0,0,1,82,85.8,35.5,35.5,0,0,1,77.6,78c-1.4-3.8-1.9-5.7-.9-9.6A7,7,0,0,1,78,65.8a16.3,16.3,0,0,0,1.1-1.7,30,30,0,0,0,10.3-6.7,32.5,32.5,0,0,0,6.7-10h1.3a48.3,48.3,0,0,0,9.3-1.2l.5-.2a17.2,17.2,0,0,0,10.5-7.8.1.1,0,0,0,.1-.1l.4-.7a24.6,24.6,0,0,0,1.9-5.8l.4-2.1a79.2,79.2,0,0,0,.3-14.6v-1l1.1.3,1.5.2h.7l.8-.2h.2l.3-.2.8-.6a3.9,3.9,0,0,1,1.6-1h1.1l1.3,1a4.2,4.2,0,0,0,3.5,0c1-.6,1.2-2.3,1.3-2.8V10h.1c.1-1.6-1.6-3.8-3.2-3.9M72.5,13.1,94,30.1l1,.7v5.4l-1-.9L71.7,14,91.9,46.4l.6.9-.8,1.6a33.9,33.9,0,0,1-3.8,5.3l-.4-.9-.8-1.8L73.4,21.4l-3-2.1-3.5-2.6-3.5,2.6-2.9,2.1L46.3,53.5l-.2.2-.3.8-.7-.8a27.2,27.2,0,0,1-4.2-6.4l.7-1.1L61.7,14,39.6,35.1l-1.2,1.1V30.8l1.2-.9,1.2-1L61.4,12.7h-.1l-1.8.7L39.6,21l-1.2.4V3.7a.5.5,0,0,1,.6-.6H94.4a.6.6,0,0,1,.6.6V21.4L94,21,72.4,12.7l-.2.2Z" fill="#ba3d36"/><polygon points="68.6 9.7 66.9 4.6 65.2 9.7 59.8 9.7 62.5 11.7 64.2 12.9 64.2 13 62.5 18.1 66.9 14.9 71.3 18.1 69.6 12.9 69.6 12.9 70.5 12.3 74 9.7 68.6 9.7" fill="#ba3d36"/></svg>