<svg xmlns="http://www.w3.org/2000/svg" viewBox="0 0 18.9 24"><path d="M3.2,16.4H.6l-.4.2a.8.8,0,0,0-.2.5v6.3a.8.8,0,0,0,.2.4l.4.2H3.2l.4-.2a.8.8,0,0,0,.2-.4V21.5H15.2v1.9a.6.6,0,0,0,.1.4l.5.2h2.5l.5-.2a.6.6,0,0,0,.1-.4V17.1a.7.7,0,0,0-.1-.5l-.5-.2H15.8l-.5.2a.7.7,0,0,0-.1.5v3.1H12.6v-.6a.6.6,0,0,0-.2-.5.5.5,0,0,0-.4-.2H10.1V5.1H12l.4-.2a.6.6,0,0,0,.2-.5V3.8h2.6V6.9a.7.7,0,0,0,.1.5l.5.2h2.5l.5-.2a.7.7,0,0,0,.1-.5V.6a.6.6,0,0,0-.1-.4L18.3,0H15.8l-.5.2a.6.6,0,0,0-.1.4V2.5H3.8V.6A.8.8,0,0,0,3.6.2L3.2,0H.6L.2.2A.8.8,0,0,0,0,.6V6.9a.8.8,0,0,0,.2.5l.4.2H3.2l.4-.2a.8.8,0,0,0,.2-.5V3.8H6.3v.6c0,.2.1.3.2.5l.4.2H8.8V18.9H6.9l-.4.2c-.1.2-.2.3-.2.5v.6H3.8V17.1a.8.8,0,0,0-.2-.5l-.4-.2Zm-.7,3.5L1.3,21.2v-.7l1.2-1.3Zm-.2-2.2-1,1v-1Zm-.8,5,1-1v1Zm14.9-2.2,1.3-1.3v.7l-1.3,1.3Zm.3,2.2,1-1v1Zm.7-5-1,1v-1Zm.3-14.2L16.4,4.8V4.1l1.3-1.3Zm-1,2.8,1-1v1Zm.7-5-1,1v-1ZM2.5,3.5,1.3,4.8V4.1L2.5,2.8ZM2.3,1.3l-1,1v-1Zm-.8,5,1-1v1Z" fill="#fff"/></svg>