<svg xmlns="http://www.w3.org/2000/svg" viewBox="0 0 41.1 24"><path d="M40.5,7.7H37.4l-.5.2c-.1.2-.2.3-.2.5V13H34L29.9,8c-.1-.2-.3-.2-.5-.2H22.8V4.3l-.2-.4c-.1-.2-.3-.2-.5-.2H16.2V1.3h6c.2,0,.3-.2.4-.3a.6.6,0,0,0,0-.6L22.2,0H8.2A1.4,1.4,0,0,0,8,.7a.8.8,0,0,0,.2.5.6.6,0,0,0,.7.1h6V3.7h-6c-.2,0-.4,0-.5.2s-.2.3-.2.5V7.8H4.8c-.2,0-.4,0-.5.2s-.2.3-.2.5v4.7H1.3V9.3a.5.5,0,0,0-.1-.6L.7,8.5l-.6.2a1.3,1.3,0,0,0-.1.6v9.1a1.3,1.3,0,0,0,.1.6.9.9,0,0,0,.6.3.5.5,0,0,0,.5-.3.5.5,0,0,0,.1-.6V14.5H4.1V20c0,.2.1.3.2.5l.5.2H8.6l2.3,3a.5.5,0,0,0,.5.3H33.7l.4-.2a.4.4,0,0,0,.2-.4V17.3h2.5v4.5a.6.6,0,0,0,.2.5l.4.2h3.1l.5-.2a.9.9,0,0,0,.1-.5V8.4a.6.6,0,0,0-.2-.5l-.4-.2ZM33.6,16a.6.6,0,0,0-.5.2.8.8,0,0,0-.2.4v6.1H11.7L9.5,19.6a.9.9,0,0,0-.6-.3H5.4V9.1H8.8l.5-.2a.8.8,0,0,0,.2-.5V5h12V8.4a.8.8,0,0,0,.2.5l.5.2H29l4.1,5,.6.2h3V16Zm6.2,5.1H38V9.1h1.8Z" transform="translate(0 0)" fill="#fff"/></svg>