<svg xmlns="http://www.w3.org/2000/svg" viewBox="0 0 20.8 24"><path d="M1.7,0A1,1,0,0,0,.6,1.1V20.2a.6.6,0,0,0,.1.4H14.8a.6.6,0,0,0,.1-.4V12.7h1.4v4.5a2.2,2.2,0,0,0,2.2,2.2,2.2,2.2,0,0,0,2.3-2.2V6a.5.5,0,0,0-.2-.4L17,2.6h-.4l-.3.2a.5.5,0,0,0-.2.4c0,.1.1.3.2.3l3.4,2.9V17.2a1.1,1.1,0,0,1-1.2,1.1,1.1,1.1,0,0,1-1.1-1.1V12.1a.6.6,0,0,0-.1-.4H14.9V1.1a1,1,0,0,0-1-1.1Zm0,1.1H13.9V19.6H1.7V1.1ZM3.8,2.2a.9.9,0,0,0-.9.8V7.9a.9.9,0,0,0,.9.8h8a.9.9,0,0,0,.8-.8V3a.9.9,0,0,0-.8-.8ZM4,3.3h7.5V7.6H4ZM.5,22.9l-.4.2c-.1.1-.1.2-.1.4a.8.8,0,0,0,.2.4H15l.3-.2c.2-.1.2-.2.2-.3s0-.3-.2-.4l-.3-.2H.5Z" fill="#fff"/></svg>