<svg xmlns="http://www.w3.org/2000/svg" viewBox="0 0 25.3 24"><path d="M22.1,0H3.2A3.2,3.2,0,0,0,.9.9,3.2,3.2,0,0,0,0,3.2V20.8a3.2,3.2,0,0,0,.9,2.3,3.2,3.2,0,0,0,2.3.9H22.1a3.1,3.1,0,0,0,2.2-.9,3.3,3.3,0,0,0,1-2.3V3.2a3.3,3.3,0,0,0-1-2.3A3.1,3.1,0,0,0,22.1,0ZM24,20.8a2,2,0,0,1-.6,1.4,1.9,1.9,0,0,1-1.3.5H3.2a2.4,2.4,0,0,1-1.4-.5,2.4,2.4,0,0,1-.5-1.4V3.2a2.4,2.4,0,0,1,.5-1.4,2.4,2.4,0,0,1,1.4-.5H22.1a1.9,1.9,0,0,1,1.3.5A2,2,0,0,1,24,3.2Z" fill="#fff"/><path d="M18.9,11.4V7.5a1.8,1.8,0,0,0,1.2-1.3,1.8,1.8,0,0,0-.3-1.7,2,2,0,0,0-3,0,1.8,1.8,0,0,0-.3,1.7,2,2,0,0,0,1.2,1.3v3.9H12.6V7.5a2,2,0,0,0,1.2-1.3,1.8,1.8,0,0,0-.3-1.7,2,2,0,0,0-3,0,1.8,1.8,0,0,0-.3,1.7,2,2,0,0,0,1.2,1.3v3.9H6.9l-.4-.2a.8.8,0,0,1-.2-.5V7.5A2,2,0,0,0,7.5,6.2a1.8,1.8,0,0,0-.3-1.7,2,2,0,0,0-3,0,1.8,1.8,0,0,0-.3,1.7A1.8,1.8,0,0,0,5.1,7.5v3.2a2.4,2.4,0,0,0,.5,1.4,2.1,2.1,0,0,0,1.3.5h4.5v3.9a2,2,0,0,0-1.2,1.3,1.8,1.8,0,0,0,.3,1.7,2,2,0,0,0,3,0,1.8,1.8,0,0,0,.3-1.7,2,2,0,0,0-1.2-1.3V12.6h5.1v3.9a2,2,0,0,0-1.2,1.3,1.8,1.8,0,0,0,.3,1.7,2,2,0,0,0,3,0,1.8,1.8,0,0,0,.3-1.7,1.8,1.8,0,0,0-1.2-1.3Zm-.6-6.3h.5a.9.9,0,0,1,.1.5c0,.2,0,.3-.1.4l-.5.2-.4-.2a.5.5,0,0,1-.2-.4c0-.2.1-.3.2-.5ZM12,5.1h.4a.6.6,0,0,1,.2.5c0,.2,0,.3-.2.4l-.4.2-.4-.2c-.2-.1-.2-.2-.2-.4a.6.6,0,0,1,.2-.5Zm-6.3,0h.4c.1.2.2.3.2.5a.5.5,0,0,1-.2.4.5.5,0,0,1-.4.2l-.5-.2c-.1-.1-.1-.2-.1-.4a.9.9,0,0,1,.1-.5ZM12,18.9h-.4a.6.6,0,0,1-.2-.5c0-.2,0-.3.2-.4l.4-.2.4.2c.2.1.2.2.2.4a.6.6,0,0,1-.2.5Zm6.3,0h-.4c-.1-.2-.2-.3-.2-.5a.5.5,0,0,1,.2-.4l.4-.2.5.2c.1.1.1.2.1.4a.9.9,0,0,1-.1.5Z" fill="#fff"/></svg>